<svg id="Layer_2_00000108281439272576090820000000620056973583311030_" enable-background="new 0 0 512 512" height="512" viewBox="0 0 512 512" width="512" xmlns="http://www.w3.org/2000/svg"><g id="Icon"><path id="UserCircle" d="m256 0c-141.4 0-256 114.6-256 256s114.6 256 256 256 256-114.6 256-256-114.6-256-256-256zm0 54.2c54.6 0 98.9 44.3 98.9 98.9s-44.3 98.9-98.9 98.9-98.9-44.3-98.9-98.9 44.3-98.8 98.9-98.9zm162.5 320.7c-36.6 50.2-95.8 82.8-162.5 82.8s-125.9-32.6-162.5-82.8c-5.7-7.8-7.3-17.8-4.4-26.9l10.2-31.7c10.9-34.2 48-52.4 81.8-40.2 19.9 7.2 44.9 12.6 74.9 12.6s55.1-5.4 74.9-12.6c33.7-12.2 70.8 6 81.8 40.2l10.1 31.7c3 9.2 1.3 19.2-4.3 26.9z"/></g></svg>